<svg id="eDsIklvYAyq1" xmlns="http://www.w3.org/2000/svg" xmlns:xlink="http://www.w3.org/1999/xlink" viewBox="0 0 300 300" shape-rendering="geometricPrecision" text-rendering="geometricPrecision"><line x1="-50" y1="0" x2="50" y2="0" transform="translate(150 200)" fill="none" stroke="#3f5787" stroke-width="3"/><line x1="-5" y1="5" x2="5" y2="-5" transform="translate(205 195)" fill="none" stroke="#3f5787" stroke-width="3"/><line x1="5" y1="5" x2="-5" y2="-5" transform="translate(95 195)" fill="none" stroke="#3f5787" stroke-width="3"/><line x1="-57.5" y1="0" x2="57.5" y2="0" transform="translate(152.5 190)" fill="none" stroke="#3f5787" stroke-width="3"/><line x1="2.5" y1="0" x2="-2.5" y2="0" transform="translate(92.5 190)" fill="none" stroke="#3f5787" stroke-width="3"/><line x1="0" y1="15.386678" x2="0" y2="-15.386677" transform="translate(110 143.839968)" fill="none" stroke="#3f5787" stroke-width="3"/><line x1="-37.500015" y1="0" x2="37.500015" y2="0" transform="translate(147.500015 128.45329)" fill="none" stroke="#3f5787" stroke-width="3"/><line x1="0" y1="-15.386677" x2="0" y2="15.386678" transform="translate(185.00003 143.839968)" fill="none" stroke="#3f5787" stroke-width="3"/><path d="M110,159.226645c0,5.72437,6.07494,16.848294,10,20.773354c8.15731,8.15731,20.81086,10.89917,32.5,10c10.180359,2.050028,34.00194-17.66906,32.14999-29.996839" transform="matrix(1.006689 0 0 1-.98155 0.000001)" fill="none" stroke="#3f5787" stroke-width="3"/><path d="M184.64999,157.63386c0,1.84014-.21106,3.00248-.78977,4.73863" fill="none" stroke="#3f5787" stroke-width="3"/><path d="M184.9353,133.62914c14.23215,2.84644,18.12105,22.4951.71413,22.4951" fill="none" stroke="#3f5787" stroke-width="3"/></svg>
